<svg xmlns="http://www.w3.org/2000/svg" viewBox="0 0 512 512">
  <defs>
    <linearGradient id="sky" x1="0.5" y1="0" x2="0.5" y2="1">
      <stop offset="0%"   stop-color="#fde047"/>
      <stop offset="28%"  stop-color="#fb923c"/>
      <stop offset="55%"  stop-color="#ec4899"/>
      <stop offset="80%"  stop-color="#7c3aed"/>
      <stop offset="100%" stop-color="#3b0764"/>
    </linearGradient>

    <radialGradient id="sun" cx="0.5" cy="0.54" r="0.45">
      <stop offset="0%"   stop-color="#fef9c3" stop-opacity="0.95"/>
      <stop offset="45%"  stop-color="#fde047" stop-opacity="0.55"/>
      <stop offset="100%" stop-color="#fde047" stop-opacity="0"/>
    </radialGradient>

    <radialGradient id="halo" cx="0.5" cy="0.54" r="0.18">
      <stop offset="0%"   stop-color="#fffbeb" stop-opacity="0.9"/>
      <stop offset="100%" stop-color="#fffbeb" stop-opacity="0"/>
    </radialGradient>

    <linearGradient id="leaf" x1="0.5" y1="0" x2="0.5" y2="1">
      <stop offset="0%"   stop-color="#166534"/>
      <stop offset="100%" stop-color="#052e16"/>
    </linearGradient>

    <linearGradient id="leafVein" x1="0.5" y1="0" x2="0.5" y2="1">
      <stop offset="0%"   stop-color="#86efac" stop-opacity="0.55"/>
      <stop offset="100%" stop-color="#22c55e" stop-opacity="0.0"/>
    </linearGradient>

    <path id="f200" d="M 0 0 C -10 -10, -18 -30, -18 -60 C -18 -94, -10 -150, 0 -200 C 10 -150, 18 -94, 18 -60 C 18 -30, 10 -10, 0 0 Z"/>
    <path id="f175" d="M 0 0 C -10 -8,  -17 -28, -17 -55 C -17 -86, -10 -130, 0 -175 C 10 -130, 17 -86, 17 -55 C 17 -28, 10 -8,  0 0 Z"/>
    <path id="f140" d="M 0 0 C -8  -8,  -14 -22, -14 -45 C -14 -72, -8  -105, 0 -140 C 8  -105, 14 -72, 14 -45 C 14 -22, 8  -8,  0 0 Z"/>
    <path id="f100" d="M 0 0 C -7  -6,  -12 -18, -12 -35 C -12 -56, -7  -76,  0 -100 C 7   -76,  12 -56, 12 -35 C 12 -18, 7  -6,  0 0 Z"/>
  </defs>

  <rect width="512" height="512" fill="url(#sky)"/>

  <circle cx="256" cy="276" r="230" fill="url(#sun)"/>

  <g opacity="0.55">
    <rect x="0" y="392" width="512" height="3" fill="#fef9c3"/>
    <rect x="0" y="404" width="512" height="2" fill="#fef9c3" opacity="0.7"/>
    <rect x="0" y="416" width="512" height="2" fill="#fef9c3" opacity="0.45"/>
    <rect x="0" y="430" width="512" height="1" fill="#fef9c3" opacity="0.3"/>
  </g>

  <g transform="translate(256, 296)">
    <rect x="-3.5" y="0" width="7" height="68" rx="3" fill="#365314"/>
    <ellipse cx="0" cy="68" rx="14" ry="5" fill="#052e16" opacity="0.4"/>

    <g fill="url(#leaf)" stroke="#022c22" stroke-width="2" stroke-linejoin="round">
      <use href="#f200"/>
      <use href="#f175" transform="rotate(-32)"/>
      <use href="#f175" transform="rotate(32)"/>
      <use href="#f140" transform="rotate(-65)"/>
      <use href="#f140" transform="rotate(65)"/>
      <use href="#f100" transform="rotate(-105)"/>
      <use href="#f100" transform="rotate(105)"/>
    </g>

    <g fill="url(#leafVein)">
      <path d="M -1.5 -10 L 1.5 -10 L 1 -195 L -1 -195 Z"/>
      <path d="M -1.5 -10 L 1.5 -10 L 1 -170 L -1 -170 Z" transform="rotate(-32)"/>
      <path d="M -1.5 -10 L 1.5 -10 L 1 -170 L -1 -170 Z" transform="rotate(32)"/>
      <path d="M -1.5 -10 L 1.5 -10 L 1 -135 L -1 -135 Z" transform="rotate(-65)"/>
      <path d="M -1.5 -10 L 1.5 -10 L 1 -135 L -1 -135 Z" transform="rotate(65)"/>
      <path d="M -1.5 -10 L 1.5 -10 L 1 -95  L -1 -95 Z"  transform="rotate(-105)"/>
      <path d="M -1.5 -10 L 1.5 -10 L 1 -95  L -1 -95 Z"  transform="rotate(105)"/>
    </g>

    <circle cx="0" cy="0" r="6" fill="#86efac" opacity="0.65"/>
  </g>

  <circle cx="256" cy="276" r="70" fill="url(#halo)"/>
</svg>
