<svg viewBox="0 0 1024 1024" xmlns="http://www.w3.org/2000/svg" data-om-id="jsx:/https:/b6be7d2d-590a-435a-8187-427029cdfeaf.claudeusercontent.com/v1/design/projects/b6be7d2d-590a-435a-8187-427029cdfeaf/serve/cartoon.jsx:794:18:5" xmlns:xlink="http://www.w3.org/1999/xlink"><defs data-om-id="jsx:/https:/b6be7d2d-590a-435a-8187-427029cdfeaf.claudeusercontent.com/v1/design/projects/b6be7d2d-590a-435a-8187-427029cdfeaf/serve/cartoon.jsx:865:19:7"><radialGradient id="vf-bg" cx="0.5" cy="0.55" r="0.8" data-om-id="jsx:/https:/b6be7d2d-590a-435a-8187-427029cdfeaf.claudeusercontent.com/v1/design/projects/b6be7d2d-590a-435a-8187-427029cdfeaf/serve/cartoon.jsx:880:20:9"><stop offset="0%" stop-color="#240b48" data-om-id="jsx:/https:/b6be7d2d-590a-435a-8187-427029cdfeaf.claudeusercontent.com/v1/design/projects/b6be7d2d-590a-435a-8187-427029cdfeaf/serve/cartoon.jsx:945:21:11"/><stop offset="100%" stop-color="#0d0322" data-om-id="jsx:/https:/b6be7d2d-590a-435a-8187-427029cdfeaf.claudeusercontent.com/v1/design/projects/b6be7d2d-590a-435a-8187-427029cdfeaf/serve/cartoon.jsx:996:22:11"/></radialGradient></defs><rect width="1024" height="1024" fill="url(#vf-bg)" data-om-id="jsx:/https:/b6be7d2d-590a-435a-8187-427029cdfeaf.claudeusercontent.com/v1/design/projects/b6be7d2d-590a-435a-8187-427029cdfeaf/serve/cartoon.jsx:1085:25:7"/><path d="M1002.0,512.0L1005.8,520.6L1009.1,529.4L1011.7,538.2L1013.4,547.1L1013.9,555.9L1013.2,564.7L1011.2,573.3L1008.2,581.7L1004.1,589.9L999.3,597.9L994.0,605.7L988.4,613.3L983.0,620.7L978.0,628.2L973.6,635.7L970.0,643.3L967.2,651.2L965.4,659.3L964.3,667.7L964.0,676.5L964.1,685.6L964.5,694.8L964.8,704.2L964.8,713.6L964.2,722.9L962.8,731.9L960.5,740.5L957.0,748.6L952.4,756.1L946.9,763.1L940.3,769.4L933.1,775.1L925.4,780.5L917.4,785.5L909.5,790.3L901.8,795.2L894.5,800.3L887.9,805.7L882.0,811.6L876.8,818.1L872.3,825.2L868.4,832.9L864.9,841.1L861.7,849.7L858.5,858.5L855.1,867.3L851.2,875.8L846.8,883.9L841.7,891.3L835.8,897.9L829.1,903.6L821.7,908.4L813.5,912.1L804.9,915.1L795.8,917.3L786.6,919.0L777.3,920.5L768.2,922.0L759.4,923.7L750.9,925.9L743.0,928.7L735.5,932.3L728.4,936.7L721.7,942.0L715.3,947.9L709.0,954.4L702.7,961.3L696.3,968.1L689.6,974.8L682.7,980.9L675.3,986.3L667.5,990.7L659.4,994.0L650.8,996.1L642.0,997.0L632.9,996.9L623.7,995.8L614.5,994.1L605.3,992.0L596.3,989.8L587.4,987.8L578.7,986.3L570.1,985.5L561.8,985.5L553.5,986.4L545.3,988.3L537.1,990.9L528.8,994.3L520.5,998.1L512.0,1002.0L503.4,1005.8L494.6,1009.1L485.8,1011.7L476.9,1013.4L468.1,1013.9L459.3,1013.2L450.7,1011.2L442.3,1008.2L434.1,1004.1L426.1,999.3L418.3,994.0L410.7,988.4L403.3,983.0L395.8,978.0L388.3,973.6L380.7,970.0L372.8,967.2L364.7,965.4L356.3,964.3L347.5,964.0L338.4,964.1L329.2,964.5L319.8,964.8L310.4,964.8L301.1,964.2L292.1,962.8L283.5,960.5L275.4,957.0L267.9,952.4L260.9,946.9L254.6,940.3L248.9,933.1L243.5,925.4L238.5,917.4L233.7,909.5L228.8,901.8L223.7,894.5L218.3,887.9L212.4,882.0L205.9,876.8L198.8,872.3L191.1,868.4L182.9,864.9L174.3,861.7L165.5,858.5L156.7,855.1L148.2,851.2L140.1,846.8L132.7,841.7L126.1,835.8L120.4,829.1L115.6,821.7L111.9,813.5L108.9,804.9L106.7,795.8L105.0,786.6L103.5,777.3L102.0,768.2L100.3,759.4L98.1,750.9L95.3,743.0L91.7,735.5L87.3,728.4L82.0,721.7L76.1,715.3L69.6,709.0L62.7,702.7L55.9,696.3L49.2,689.6L43.1,682.7L37.7,675.3L33.3,667.5L30.0,659.4L27.9,650.8L27.0,642.0L27.1,632.9L28.2,623.7L29.9,614.5L32.0,605.3L34.2,596.3L36.2,587.4L37.7,578.7L38.5,570.1L38.5,561.8L37.6,553.5L35.7,545.3L33.1,537.1L29.7,528.8L25.9,520.5L22.0,512.0L18.2,503.4L14.9,494.6L12.3,485.8L10.6,476.9L10.1,468.1L10.8,459.3L12.8,450.7L15.8,442.3L19.9,434.1L24.7,426.1L30.0,418.3L35.6,410.7L41.0,403.3L46.0,395.8L50.4,388.3L54.0,380.7L56.8,372.8L58.6,364.7L59.7,356.3L60.0,347.5L59.9,338.4L59.5,329.2L59.2,319.8L59.2,310.4L59.8,301.1L61.2,292.1L63.5,283.5L67.0,275.4L71.6,267.9L77.1,260.9L83.7,254.6L90.9,248.9L98.6,243.5L106.6,238.5L114.5,233.7L122.2,228.8L129.5,223.7L136.1,218.3L142.0,212.4L147.2,205.9L151.7,198.8L155.6,191.1L159.1,182.9L162.3,174.3L165.5,165.5L168.9,156.7L172.8,148.2L177.2,140.1L182.3,132.7L188.2,126.1L194.9,120.4L202.3,115.6L210.5,111.9L219.1,108.9L228.2,106.7L237.4,105.0L246.7,103.5L255.8,102.0L264.6,100.3L273.1,98.1L281.0,95.3L288.5,91.7L295.6,87.3L302.3,82.0L308.7,76.1L315.0,69.6L321.3,62.7L327.7,55.9L334.4,49.2L341.3,43.1L348.7,37.7L356.5,33.3L364.6,30.0L373.2,27.9L382.0,27.0L391.1,27.1L400.3,28.2L409.5,29.9L418.7,32.0L427.7,34.2L436.6,36.2L445.3,37.7L453.9,38.5L462.2,38.5L470.5,37.6L478.7,35.7L486.9,33.1L495.2,29.7L503.5,25.9L512.0,22.0L520.6,18.2L529.4,14.9L538.2,12.3L547.1,10.6L555.9,10.1L564.7,10.8L573.3,12.8L581.7,15.8L589.9,19.9L597.9,24.7L605.7,30.0L613.3,35.6L620.7,41.0L628.2,46.0L635.7,50.4L643.3,54.0L651.2,56.8L659.3,58.6L667.7,59.7L676.5,60.0L685.6,59.9L694.8,59.5L704.2,59.2L713.6,59.2L722.9,59.8L731.9,61.2L740.5,63.5L748.6,67.0L756.1,71.6L763.1,77.1L769.4,83.7L775.1,90.9L780.5,98.6L785.5,106.6L790.3,114.5L795.2,122.2L800.3,129.5L805.7,136.1L811.6,142.0L818.1,147.2L825.2,151.7L832.9,155.6L841.1,159.1L849.7,162.3L858.5,165.5L867.3,168.9L875.8,172.8L883.9,177.2L891.3,182.3L897.9,188.2L903.6,194.9L908.4,202.3L912.1,210.5L915.1,219.1L917.3,228.2L919.0,237.4L920.5,246.7L922.0,255.8L923.7,264.6L925.9,273.1L928.7,281.0L932.3,288.5L936.7,295.6L942.0,302.3L947.9,308.7L954.4,315.0L961.3,321.3L968.1,327.7L974.8,334.4L980.9,341.3L986.3,348.7L990.7,356.5L994.0,364.6L996.1,373.2L997.0,382.0L996.9,391.1L995.8,400.3L994.1,409.5L992.0,418.7L989.8,427.7L987.8,436.6L986.3,445.3L985.5,453.9L985.5,462.2L986.4,470.5L988.3,478.7L990.9,486.9L994.3,495.2L998.1,503.5L1002.0,512.0Z" fill="#3a0e6e" data-om-id="jsx:/https:/b6be7d2d-590a-435a-8187-427029cdfeaf.claudeusercontent.com/v1/design/projects/b6be7d2d-590a-435a-8187-427029cdfeaf/serve/cartoon.jsx:1177:27:9"/><path d="M939.0,512.0L942.5,519.5L945.3,527.1L947.3,534.8L948.3,542.5L948.3,550.2L947.3,557.7L945.2,565.2L942.2,572.5L938.3,579.5L933.7,586.4L928.6,593.0L923.2,599.4L917.6,605.6L912.2,611.8L907.0,617.8L902.3,623.9L898.2,630.1L894.8,636.4L892.1,642.9L890.2,649.6L889.0,656.7L888.4,664.1L888.4,671.8L888.7,679.7L889.2,687.9L889.8,696.2L890.1,704.6L890.0,713.0L889.4,721.2L888.2,729.2L886.1,736.8L883.2,743.9L879.3,750.5L874.6,756.6L869.1,762.0L862.8,766.9L855.9,771.1L848.5,774.9L840.9,778.3L833.0,781.4L825.3,784.3L817.7,787.2L810.4,790.2L803.5,793.5L797.2,797.2L791.4,801.3L786.2,806.0L781.5,811.3L777.3,817.2L773.5,823.6L770.0,830.6L766.6,837.9L763.2,845.4L759.8,853.0L756.1,860.6L752.0,867.9L747.5,874.7L742.6,881.0L737.0,886.5L730.9,891.2L724.3,895.0L717.2,897.9L709.6,899.8L701.7,900.9L693.5,901.3L685.2,901.1L676.9,900.4L668.5,899.4L660.3,898.4L652.3,897.5L644.5,896.9L637.0,896.8L629.8,897.3L622.8,898.5L616.1,900.5L609.5,903.2L603.1,906.7L596.8,910.8L590.4,915.4L584.0,920.4L577.5,925.6L570.8,930.7L564.0,935.5L557.0,939.9L549.8,943.7L542.4,946.7L534.9,948.7L527.3,949.7L519.6,949.7L512.0,948.6L504.4,946.5L496.9,943.6L489.6,939.9L482.4,935.6L475.3,931.1L468.5,926.3L461.7,921.6L455.1,917.2L448.5,913.2L441.9,909.8L435.2,907.1L428.4,905.2L421.5,904.1L414.3,903.7L407.0,904.0L399.4,904.8L391.5,906.1L383.5,907.6L375.3,909.1L367.0,910.5L358.7,911.4L350.4,911.9L342.4,911.7L334.5,910.6L327.1,908.6L320.0,905.7L313.4,901.8L307.3,897.0L301.7,891.4L296.6,885.1L291.9,878.3L287.6,871.1L283.6,863.7L279.7,856.4L275.9,849.1L272.1,842.2L268.0,835.8L263.6,829.9L258.8,824.6L253.6,820.0L247.8,815.9L241.5,812.4L234.7,809.4L227.4,806.7L219.8,804.2L211.9,801.8L203.9,799.3L196.0,796.5L188.2,793.4L180.9,789.8L174.0,785.7L167.8,780.9L162.3,775.5L157.7,769.4L153.9,762.7L151.0,755.5L148.9,747.8L147.5,739.8L146.7,731.5L146.3,723.1L146.3,714.7L146.3,706.4L146.3,698.4L145.9,690.5L145.2,683.1L143.9,675.9L141.9,669.1L139.2,662.6L135.7,656.4L131.5,650.5L126.7,644.7L121.4,638.9L115.7,633.2L109.8,627.3L103.9,621.3L98.2,615.2L93.0,608.7L88.3,602.1L84.4,595.1L81.4,587.9L79.4,580.5L78.5,572.9L78.6,565.2L79.6,557.4L81.6,549.7L84.3,541.9L87.6,534.2L91.3,526.7L95.2,519.3L99.0,512.0L102.6,504.9L105.8,497.8L108.4,490.9L110.4,483.9L111.5,477.0L111.9,469.9L111.5,462.8L110.3,455.6L108.6,448.1L106.5,440.5L104.0,432.7L101.5,424.7L99.1,416.7L97.1,408.6L95.6,400.4L94.8,392.4L94.9,384.5L95.9,376.8L97.9,369.4L100.8,362.4L104.8,355.7L109.6,349.4L115.2,343.6L121.3,338.1L127.9,332.9L134.8,328.0L141.6,323.3L148.4,318.6L154.8,314.0L160.7,309.2L166.1,304.1L170.8,298.8L174.8,293.0L178.2,286.9L181.0,280.2L183.2,273.1L185.0,265.6L186.6,257.8L188.0,249.7L189.6,241.4L191.3,233.2L193.4,225.1L196.0,217.4L199.3,210.0L203.2,203.2L207.9,197.1L213.3,191.7L219.4,187.1L226.2,183.2L233.6,180.2L241.3,177.8L249.4,175.9L257.7,174.6L266.0,173.5L274.3,172.5L282.3,171.5L290.1,170.2L297.4,168.6L304.4,166.5L310.9,163.7L317.1,160.3L322.8,156.2L328.3,151.4L333.5,146.0L338.5,140.0L343.6,133.7L348.6,127.1L353.9,120.6L359.3,114.2L365.0,108.1L371.1,102.7L377.4,97.9L384.2,94.0L391.3,91.0L398.7,89.1L406.3,88.2L414.2,88.2L422.1,89.2L430.1,90.9L438.1,93.2L446.1,95.9L453.9,98.9L461.6,101.8L469.2,104.5L476.6,106.9L483.8,108.7L490.9,109.8L498.0,110.2L505.0,109.8L512.0,108.6L519.1,106.6L526.2,104.1L533.5,101.0L541.0,97.7L548.5,94.2L556.3,90.9L564.1,87.9L572.0,85.4L579.9,83.6L587.7,82.6L595.5,82.6L603.1,83.6L610.4,85.6L617.6,88.6L624.4,92.6L630.9,97.4L637.1,102.8L643.0,108.7L648.7,114.9L654.3,121.1L659.7,127.2L665.1,133.1L670.6,138.4L676.2,143.2L682.1,147.3L688.2,150.7L694.7,153.3L701.6,155.3L708.9,156.7L716.6,157.7L724.5,158.3L732.7,158.8L741.1,159.3L749.5,160.0L757.7,161.1L765.8,162.7L773.5,165.0L780.8,168.0L787.5,171.8L793.5,176.5L798.9,182.0L803.6,188.2L807.6,195.0L810.9,202.4L813.8,210.2L816.2,218.3L818.3,226.4L820.2,234.5L822.2,242.3L824.3,249.9L826.8,257.1L829.7,263.8L833.2,270.0L837.3,275.7L842.0,280.9L847.4,285.8L853.4,290.3L859.8,294.6L866.7,298.9L873.8,303.1L881.0,307.5L888.0,312.1L894.7,317.0L900.9,322.3L906.5,328.1L911.2,334.3L915.1,340.9L918.0,348.0L919.9,355.4L920.9,363.2L921.0,371.2L920.3,379.3L919.0,387.6L917.3,395.8L915.3,403.9L913.3,411.9L911.4,419.8L910.0,427.4L909.0,434.8L908.7,442.1L909.1,449.1L910.3,456.0L912.3,462.8L915.0,469.6L918.4,476.4L922.2,483.3L926.4,490.3L930.8,497.4L935.0,504.6L939.0,512.0Z" fill="#7424c4" data-om-id="jsx:/https:/b6be7d2d-590a-435a-8187-427029cdfeaf.claudeusercontent.com/v1/design/projects/b6be7d2d-590a-435a-8187-427029cdfeaf/serve/cartoon.jsx:1177:27:9"/><path d="M876.3,512.0L878.7,518.4L880.3,524.9L881.1,531.3L881.1,537.8L880.2,544.2L878.5,550.5L876.1,556.7L872.9,562.7L869.1,568.6L864.7,574.2L860.0,579.7L855.1,584.9L850.0,590.0L845.0,595.0L840.2,599.9L835.6,604.8L831.5,609.7L827.8,614.6L824.7,619.7L822.1,624.9L820.2,630.3L818.9,636.0L818.0,641.9L817.7,648.1L817.8,654.6L818.1,661.3L818.6,668.2L819.1,675.3L819.6,682.5L819.8,689.7L819.7,696.9L819.2,704.0L818.2,710.8L816.5,717.4L814.2,723.6L811.2,729.4L807.5,734.7L803.1,739.4L798.1,743.7L792.5,747.4L786.5,750.6L780.0,753.3L773.3,755.6L766.3,757.6L759.3,759.3L752.3,760.8L745.4,762.3L738.7,763.8L732.4,765.5L726.3,767.4L720.7,769.7L715.4,772.4L710.6,775.6L706.1,779.2L702.0,783.4L698.2,788.1L694.6,793.2L691.2,798.8L687.9,804.7L684.6,810.9L681.1,817.2L677.6,823.4L673.8,829.6L669.8,835.5L665.4,841.1L660.8,846.1L655.7,850.6L650.3,854.3L644.6,857.3L638.5,859.6L632.2,861.0L625.6,861.7L618.9,861.6L612.0,860.8L605.1,859.5L598.2,857.7L591.3,855.5L584.5,853.0L577.8,850.5L571.3,848.1L564.9,845.8L558.6,843.9L552.6,842.4L546.6,841.4L540.8,841.0L535.0,841.2L529.3,842.0L523.6,843.5L517.8,845.5L512.0,848.1L506.1,851.0L500.0,854.2L493.9,857.7L487.6,861.1L481.2,864.4L474.6,867.5L468.0,870.2L461.4,872.3L454.7,873.8L448.1,874.7L441.5,874.7L435.1,873.9L428.8,872.3L422.8,869.9L417.0,866.7L411.4,862.8L406.1,858.3L401.1,853.3L396.3,847.9L391.8,842.3L387.4,836.5L383.2,830.8L379.0,825.3L374.9,820.0L370.6,815.2L366.3,810.7L361.8,806.8L357.0,803.5L352.0,800.7L346.6,798.4L340.9,796.7L334.9,795.4L328.5,794.5L321.9,793.8L315.0,793.3L307.9,792.9L300.8,792.3L293.6,791.6L286.5,790.5L279.5,789.1L272.8,787.2L266.5,784.7L260.6,781.6L255.2,777.9L250.4,773.6L246.2,768.7L242.5,763.3L239.6,757.3L237.1,750.9L235.3,744.2L233.9,737.2L232.9,730.1L232.2,722.9L231.6,715.7L231.1,708.7L230.6,701.8L229.9,695.2L228.9,688.9L227.5,682.9L225.7,677.3L223.3,672.0L220.5,667.0L217.0,662.3L213.0,657.8L208.5,653.5L203.5,649.3L198.2,645.2L192.6,641.0L186.9,636.8L181.2,632.4L175.6,627.8L170.2,623.0L165.3,618.0L160.9,612.7L157.1,607.1L154.0,601.3L151.6,595.2L150.1,588.9L149.5,582.5L149.6,575.9L150.5,569.3L152.1,562.6L154.3,555.9L157.1,549.3L160.2,542.8L163.5,536.4L166.9,530.1L170.3,523.9L173.5,517.9L176.3,512.0L178.8,506.2L180.7,500.4L182.1,494.7L182.8,489.0L182.9,483.2L182.4,477.4L181.3,471.4L179.7,465.3L177.7,459.0L175.4,452.6L172.9,446.1L170.4,439.4L168.0,432.6L165.8,425.7L164.0,418.8L162.7,411.8L162.1,405.0L162.1,398.3L162.8,391.8L164.4,385.5L166.7,379.5L169.8,373.8L173.7,368.4L178.2,363.4L183.3,358.7L188.9,354.4L194.9,350.4L201.1,346.7L207.4,343.1L213.6,339.7L219.7,336.4L225.6,333.0L231.1,329.6L236.2,326.0L240.8,322.1L244.9,317.9L248.4,313.4L251.5,308.5L254.1,303.2L256.3,297.4L258.2,291.4L259.8,284.9L261.3,278.2L262.8,271.3L264.3,264.3L266.0,257.3L268.0,250.3L270.4,243.6L273.1,237.2L276.4,231.2L280.2,225.7L284.5,220.8L289.3,216.5L294.7,212.9L300.5,210.0L306.8,207.8L313.4,206.2L320.3,205.2L327.4,204.7L334.6,204.7L341.8,204.9L349.0,205.4L356.0,205.9L362.9,206.4L369.6,206.6L376.0,206.6L382.2,206.2L388.1,205.3L393.7,203.8L399.1,201.8L404.3,199.2L409.3,196.0L414.2,192.2L419.1,188.0L423.9,183.3L428.8,178.4L433.8,173.4L439.0,168.3L444.2,163.4L449.7,158.7L455.4,154.5L461.2,150.7L467.3,147.6L473.5,145.2L479.8,143.7L486.2,142.9L492.7,143.0L499.1,143.9L505.6,145.6L512.0,148.1L518.3,151.1L524.5,154.7L530.5,158.6L536.4,162.8L542.2,167.1L547.8,171.3L553.3,175.4L558.8,179.1L564.2,182.5L569.6,185.3L575.1,187.5L580.6,189.2L586.3,190.2L592.1,190.7L598.1,190.5L604.4,189.9L610.8,188.8L617.4,187.5L624.2,186.0L631.2,184.5L638.3,183.0L645.4,181.8L652.5,180.9L659.6,180.6L666.5,180.7L673.2,181.6L679.6,183.1L685.7,185.4L691.3,188.5L696.6,192.2L701.5,196.7L705.8,201.8L709.8,207.4L713.3,213.5L716.5,219.9L719.4,226.5L722.0,233.3L724.5,240.0L727.0,246.5L729.4,252.9L732.0,258.9L734.9,264.5L738.0,269.7L741.5,274.4L745.3,278.7L749.7,282.5L754.5,285.9L759.8,288.9L765.4,291.7L771.5,294.2L777.9,296.7L784.5,299.1L791.2,301.6L797.9,304.3L804.5,307.2L810.9,310.4L816.9,314.0L822.5,318.0L827.5,322.4L831.9,327.3L835.6,332.6L838.5,338.4L840.7,344.5L842.2,351.0L842.9,357.7L843.0,364.6L842.6,371.7L841.7,378.8L840.4,385.9L839.0,393.0L837.5,399.9L836.0,406.7L834.7,413.3L833.7,419.7L833.2,425.9L833.2,431.9L833.7,437.7L834.8,443.4L836.6,448.9L839.0,454.3L841.9,459.8L845.3,465.2L849.1,470.6L853.2,476.1L857.5,481.8L861.8,487.5L866.0,493.4L869.9,499.5L873.4,505.7L876.3,512.0Z" fill="#b03cd5" data-om-id="jsx:/https:/b6be7d2d-590a-435a-8187-427029cdfeaf.claudeusercontent.com/v1/design/projects/b6be7d2d-590a-435a-8187-427029cdfeaf/serve/cartoon.jsx:1177:27:9"/><path d="M808.8,512.0L809.5,517.2L809.8,522.4L809.5,527.6L808.7,532.7L807.3,537.8L805.5,542.9L803.2,547.8L800.6,552.6L797.5,557.2L794.2,561.8L790.6,566.2L786.9,570.4L783.1,574.6L779.2,578.6L775.5,582.6L771.8,586.5L768.3,590.4L765.0,594.2L762.0,598.1L759.3,602.0L757.0,606.0L754.9,610.2L753.3,614.4L751.9,618.8L750.8,623.4L750.1,628.1L749.5,633.0L749.2,638.1L749.0,643.4L748.8,648.7L748.7,654.2L748.6,659.8L748.3,665.5L747.9,671.1L747.3,676.8L746.4,682.3L745.2,687.7L743.6,693.0L741.7,698.0L739.3,702.8L736.6,707.2L733.4,711.4L729.9,715.2L725.9,718.6L721.6,721.6L717.0,724.3L712.1,726.6L707.0,728.5L701.6,730.2L696.2,731.5L690.6,732.6L685.0,733.4L679.4,734.2L673.9,734.8L668.4,735.4L663.1,736.1L658.0,736.8L653.0,737.6L648.2,738.7L643.6,740.0L639.2,741.5L635.0,743.4L631.0,745.5L627.1,748.0L623.4,750.8L619.7,754.0L616.2,757.4L612.6,761.1L609.1,764.9L605.5,769.0L601.9,773.1L598.2,777.3L594.4,781.5L590.4,785.6L586.3,789.5L582.1,793.1L577.7,796.5L573.1,799.5L568.4,802.1L563.5,804.3L558.6,805.9L553.5,807.1L548.3,807.7L543.1,807.8L537.8,807.3L532.6,806.4L527.4,805.0L522.2,803.2L517.0,801.0L512.0,798.5L507.0,795.8L502.2,792.8L497.4,789.8L492.8,786.7L488.2,783.7L483.8,780.8L479.3,778.0L475.0,775.5L470.6,773.2L466.3,771.2L461.9,769.6L457.5,768.3L453.0,767.4L448.5,766.8L443.8,766.5L439.0,766.6L434.1,766.9L429.0,767.5L423.8,768.2L418.5,769.0L413.0,769.8L407.5,770.7L401.9,771.4L396.2,772.0L390.6,772.3L385.0,772.4L379.4,772.2L374.0,771.5L368.7,770.5L363.6,769.0L358.7,767.1L354.1,764.7L349.7,761.8L345.7,758.6L341.9,754.9L338.5,750.8L335.4,746.3L332.6,741.6L330.1,736.6L327.8,731.5L325.8,726.2L324.0,720.8L322.3,715.5L320.7,710.1L319.1,704.9L317.6,699.7L316.0,694.8L314.3,690.0L312.4,685.5L310.4,681.2L308.1,677.1L305.5,673.3L302.7,669.7L299.6,666.3L296.1,663.2L292.4,660.1L288.4,657.2L284.2,654.3L279.8,651.5L275.2,648.7L270.4,645.9L265.7,643.0L260.9,639.9L256.2,636.8L251.7,633.4L247.3,629.8L243.2,626.1L239.5,622.1L236.1,617.9L233.1,613.5L230.6,608.9L228.6,604.1L227.1,599.1L226.1,594.0L225.6,588.7L225.6,583.4L226.1,578.0L227.0,572.6L228.2,567.2L229.8,561.8L231.7,556.4L233.7,551.1L235.9,545.9L238.1,540.8L240.3,535.8L242.4,530.9L244.4,526.0L246.1,521.3L247.6,516.6L248.8,512.0L249.6,507.4L250.1,502.9L250.3,498.3L250.0,493.7L249.5,489.0L248.6,484.3L247.4,479.5L246.0,474.6L244.4,469.6L242.7,464.5L240.9,459.3L239.1,454.0L237.4,448.6L235.9,443.2L234.5,437.7L233.5,432.1L232.8,426.6L232.4,421.2L232.6,415.8L233.1,410.5L234.2,405.4L235.7,400.4L237.8,395.6L240.3,391.0L243.3,386.7L246.7,382.6L250.6,378.8L254.7,375.2L259.2,371.9L263.9,368.7L268.7,365.8L273.7,363.1L278.7,360.5L283.7,358.0L288.6,355.6L293.4,353.1L298.0,350.7L302.3,348.2L306.5,345.6L310.4,342.8L314.0,339.8L317.3,336.7L320.3,333.3L323.1,329.6L325.7,325.7L328.0,321.5L330.2,317.0L332.3,312.4L334.3,307.5L336.2,302.5L338.2,297.4L340.2,292.2L342.4,286.9L344.7,281.8L347.2,276.7L350.0,271.8L353.0,267.1L356.2,262.7L359.8,258.7L363.6,255.0L367.7,251.7L372.1,248.9L376.8,246.6L381.6,244.7L386.7,243.3L392.0,242.4L397.3,241.9L402.8,241.8L408.4,242.1L414.0,242.8L419.6,243.6L425.2,244.7L430.7,246.0L436.1,247.3L441.4,248.5L446.6,249.8L451.7,250.9L456.7,251.8L461.5,252.4L466.3,252.8L471.0,252.8L475.5,252.5L480.1,251.9L484.6,250.8L489.0,249.5L493.5,247.8L498.0,245.8L502.6,243.6L507.3,241.1L512.0,238.5L516.8,235.9L521.7,233.2L526.7,230.6L531.9,228.1L537.0,225.8L542.3,223.8L547.6,222.2L552.9,220.9L558.2,220.1L563.5,219.7L568.8,219.9L574.0,220.5L579.0,221.7L583.9,223.4L588.7,225.6L593.4,228.3L597.8,231.4L602.0,234.9L606.1,238.7L610.0,242.8L613.7,247.0L617.3,251.4L620.7,255.9L624.0,260.4L627.3,264.8L630.5,269.1L633.7,273.2L636.9,277.1L640.2,280.7L643.6,284.0L647.2,287.1L650.9,289.8L654.7,292.2L658.8,294.3L663.2,296.1L667.7,297.7L672.4,299.1L677.4,300.3L682.5,301.4L687.8,302.5L693.2,303.6L698.7,304.7L704.2,305.9L709.7,307.3L715.1,308.9L720.4,310.7L725.5,312.9L730.4,315.3L735.1,318.1L739.3,321.2L743.3,324.7L746.8,328.6L749.9,332.7L752.6,337.2L754.9,341.9L756.7,347.0L758.1,352.2L759.1,357.6L759.8,363.1L760.1,368.7L760.2,374.4L760.1,380.1L759.9,385.7L759.5,391.3L759.2,396.7L758.9,402.1L758.7,407.3L758.7,412.3L758.9,417.2L759.3,422.0L760.1,426.6L761.2,431.0L762.6,435.4L764.4,439.6L766.5,443.8L769.0,447.9L771.7,452.0L774.7,456.2L778.0,460.3L781.3,464.5L784.8,468.8L788.3,473.2L791.7,477.7L795.0,482.3L798.2,487.0L801.0,491.8L803.6,496.7L805.8,501.7L807.5,506.8L808.8,512.0Z" fill="#dd47a6" data-om-id="jsx:/https:/b6be7d2d-590a-435a-8187-427029cdfeaf.claudeusercontent.com/v1/design/projects/b6be7d2d-590a-435a-8187-427029cdfeaf/serve/cartoon.jsx:1177:27:9"/><path d="M738.0,512.0L737.7,515.9L737.1,519.9L736.1,523.7L734.8,527.6L733.1,531.3L731.1,535.0L728.9,538.6L726.5,542.1L723.9,545.6L721.1,548.9L718.2,552.1L715.3,555.2L712.4,558.3L709.5,561.2L706.7,564.2L704.0,567.1L701.5,569.9L699.2,572.8L697.0,575.7L695.1,578.6L693.4,581.6L691.9,584.7L690.7,587.8L689.6,591.1L688.8,594.5L688.3,598.0L687.8,601.6L687.5,605.3L687.4,609.2L687.3,613.2L687.2,617.3L687.2,621.5L687.1,625.7L686.9,630.0L686.7,634.3L686.3,638.6L685.6,642.9L684.8,647.0L683.8,651.1L682.5,655.1L680.9,658.8L679.1,662.4L676.9,665.8L674.5,668.9L671.8,671.8L668.8,674.4L665.6,676.7L662.2,678.8L658.5,680.5L654.7,682.0L650.7,683.2L646.6,684.2L642.3,685.0L638.1,685.5L633.8,685.9L629.5,686.2L625.2,686.3L621.0,686.4L616.8,686.5L612.8,686.6L608.9,686.7L605.0,687.0L601.3,687.3L597.8,687.9L594.3,688.6L591.0,689.5L587.8,690.6L584.7,691.9L581.7,693.5L578.7,695.4L575.8,697.4L573.0,699.7L570.1,702.1L567.3,704.8L564.4,707.5L561.5,710.4L558.5,713.3L555.4,716.2L552.3,719.1L549.0,722.0L545.7,724.7L542.3,727.3L538.7,729.7L535.1,731.8L531.4,733.7L527.6,735.3L523.8,736.5L519.9,737.4L515.9,737.9L512.0,738.0L508.1,737.7L504.1,737.1L500.3,736.1L496.4,734.8L492.7,733.1L489.0,731.1L485.4,728.9L481.9,726.5L478.4,723.9L475.1,721.1L471.9,718.2L468.8,715.3L465.7,712.4L462.8,709.5L459.8,706.7L456.9,704.0L454.1,701.5L451.2,699.2L448.3,697.0L445.4,695.1L442.4,693.4L439.3,691.9L436.2,690.7L432.9,689.6L429.5,688.8L426.0,688.3L422.4,687.8L418.7,687.5L414.8,687.4L410.8,687.3L406.7,687.2L402.5,687.2L398.3,687.1L394.0,686.9L389.7,686.7L385.4,686.3L381.1,685.6L377.0,684.8L372.9,683.8L368.9,682.5L365.2,680.9L361.6,679.1L358.2,676.9L355.1,674.5L352.2,671.8L349.6,668.8L347.3,665.6L345.2,662.2L343.5,658.5L342.0,654.7L340.8,650.7L339.8,646.6L339.0,642.3L338.5,638.1L338.1,633.8L337.8,629.5L337.7,625.2L337.6,621.0L337.5,616.8L337.4,612.8L337.3,608.9L337.0,605.0L336.7,601.3L336.1,597.8L335.4,594.3L334.5,591.0L333.4,587.8L332.1,584.7L330.5,581.7L328.6,578.7L326.6,575.8L324.3,573.0L321.9,570.1L319.2,567.3L316.5,564.4L313.6,561.5L310.7,558.5L307.8,555.4L304.9,552.3L302.0,549.0L299.3,545.7L296.7,542.3L294.3,538.7L292.2,535.1L290.3,531.4L288.7,527.6L287.5,523.8L286.6,519.9L286.1,515.9L286.0,512.0L286.3,508.1L286.9,504.1L287.9,500.3L289.2,496.4L290.9,492.7L292.9,489.0L295.1,485.4L297.5,481.9L300.1,478.4L302.9,475.1L305.8,471.9L308.7,468.8L311.6,465.7L314.5,462.8L317.3,459.8L320.0,456.9L322.5,454.1L324.8,451.2L327.0,448.3L328.9,445.4L330.6,442.4L332.1,439.3L333.3,436.2L334.4,432.9L335.2,429.5L335.7,426.0L336.2,422.4L336.5,418.7L336.6,414.8L336.7,410.8L336.8,406.7L336.8,402.5L336.9,398.3L337.1,394.0L337.3,389.7L337.7,385.4L338.4,381.1L339.2,377.0L340.2,372.9L341.5,368.9L343.1,365.2L344.9,361.6L347.1,358.2L349.5,355.1L352.2,352.2L355.2,349.6L358.4,347.3L361.8,345.2L365.5,343.5L369.3,342.0L373.3,340.8L377.4,339.8L381.7,339.0L385.9,338.5L390.2,338.1L394.5,337.8L398.8,337.7L403.0,337.6L407.2,337.5L411.2,337.4L415.1,337.3L419.0,337.0L422.7,336.7L426.2,336.1L429.7,335.4L433.0,334.5L436.2,333.4L439.3,332.1L442.3,330.5L445.3,328.6L448.2,326.6L451.0,324.3L453.9,321.9L456.7,319.2L459.6,316.5L462.5,313.6L465.5,310.7L468.6,307.8L471.7,304.9L475.0,302.0L478.3,299.3L481.7,296.7L485.3,294.3L488.9,292.2L492.6,290.3L496.4,288.7L500.2,287.5L504.1,286.6L508.1,286.1L512.0,286.0L515.9,286.3L519.9,286.9L523.7,287.9L527.6,289.2L531.3,290.9L535.0,292.9L538.6,295.1L542.1,297.5L545.6,300.1L548.9,302.9L552.1,305.8L555.2,308.7L558.3,311.6L561.2,314.5L564.2,317.3L567.1,320.0L569.9,322.5L572.8,324.8L575.7,327.0L578.6,328.9L581.6,330.6L584.7,332.1L587.8,333.3L591.1,334.4L594.5,335.2L598.0,335.7L601.6,336.2L605.3,336.5L609.2,336.6L613.2,336.7L617.3,336.8L621.5,336.8L625.7,336.9L630.0,337.1L634.3,337.3L638.6,337.7L642.9,338.4L647.0,339.2L651.1,340.2L655.1,341.5L658.8,343.1L662.4,344.9L665.8,347.1L668.9,349.5L671.8,352.2L674.4,355.2L676.7,358.4L678.8,361.8L680.5,365.5L682.0,369.3L683.2,373.3L684.2,377.4L685.0,381.7L685.5,385.9L685.9,390.2L686.2,394.5L686.3,398.8L686.4,403.0L686.5,407.2L686.6,411.2L686.7,415.1L687.0,419.0L687.3,422.7L687.9,426.2L688.6,429.7L689.5,433.0L690.6,436.2L691.9,439.3L693.5,442.3L695.4,445.3L697.4,448.2L699.7,451.0L702.1,453.9L704.8,456.7L707.5,459.6L710.4,462.5L713.3,465.5L716.2,468.6L719.1,471.7L722.0,475.0L724.7,478.3L727.3,481.7L729.7,485.3L731.8,488.9L733.7,492.6L735.3,496.4L736.5,500.2L737.4,504.1L737.9,508.1L738.0,512.0Z" fill="#ff6ab5" data-om-id="jsx:/https:/b6be7d2d-590a-435a-8187-427029cdfeaf.claudeusercontent.com/v1/design/projects/b6be7d2d-590a-435a-8187-427029cdfeaf/serve/cartoon.jsx:1177:27:9"/><path d="M662.9,512.0L662.2,514.6L661.3,517.2L660.2,519.8L658.9,522.3L657.5,524.7L656.0,527.1L654.3,529.5L652.6,531.8L650.8,534.0L648.9,536.1L647.1,538.3L645.2,540.3L643.4,542.3L641.6,544.3L639.8,546.3L638.2,548.2L636.6,550.1L635.2,552.0L633.9,554.0L632.7,555.9L631.6,557.9L630.7,560.0L629.9,562.0L629.2,564.2L628.6,566.4L628.2,568.7L627.8,571.0L627.6,573.4L627.4,575.9L627.2,578.5L627.1,581.2L627.0,583.9L626.9,586.6L626.8,589.4L626.6,592.3L626.4,595.1L626.1,598.0L625.6,600.8L625.1,603.6L624.5,606.4L623.7,609.1L622.7,611.7L621.6,614.2L620.4,616.7L618.9,618.9L617.4,621.1L615.6,623.1L613.7,625.0L611.7,626.6L609.5,628.1L607.1,629.5L604.7,630.6L602.1,631.6L599.5,632.4L596.8,633.1L594.0,633.5L591.2,633.9L588.3,634.1L585.4,634.2L582.6,634.2L579.7,634.2L576.9,634.0L574.1,633.9L571.4,633.7L568.7,633.5L566.0,633.4L563.5,633.3L561.0,633.2L558.5,633.2L556.2,633.4L553.9,633.6L551.6,634.0L549.4,634.4L547.3,635.1L545.2,635.8L543.1,636.7L541.0,637.7L539.0,638.8L536.9,640.1L534.8,641.5L532.7,642.9L530.6,644.4L528.5,646.0L526.3,647.7L524.0,649.3L521.7,650.9L519.4,652.6L517.0,654.1L514.5,655.6L512.0,657.0L509.4,658.3L506.9,659.4L504.2,660.4L501.6,661.2L498.9,661.8L496.2,662.2L493.5,662.4L490.9,662.4L488.2,662.1L485.6,661.7L483.0,661.0L480.5,660.1L478.1,659.0L475.7,657.7L473.4,656.2L471.1,654.5L469.0,652.7L466.9,650.8L464.9,648.7L463.0,646.6L461.2,644.3L459.4,642.1L457.8,639.8L456.1,637.5L454.5,635.2L453.0,633.0L451.5,630.8L449.9,628.7L448.4,626.7L446.9,624.8L445.3,623.0L443.7,621.3L442.1,619.7L440.4,618.2L438.6,616.9L436.7,615.6L434.8,614.5L432.7,613.5L430.6,612.5L428.4,611.7L426.0,610.9L423.6,610.1L421.1,609.4L418.6,608.7L416.0,608.0L413.3,607.3L410.6,606.6L407.9,605.8L405.1,604.9L402.4,603.9L399.8,602.9L397.2,601.7L394.6,600.5L392.2,599.1L389.8,597.5L387.6,595.9L385.6,594.1L383.7,592.2L382.0,590.1L380.4,588.0L379.1,585.7L377.9,583.3L377.0,580.8L376.2,578.2L375.7,575.6L375.3,572.9L375.1,570.1L375.1,567.3L375.3,564.5L375.6,561.6L376.0,558.8L376.6,556.0L377.2,553.2L377.9,550.4L378.7,547.7L379.5,545.0L380.3,542.4L381.0,539.8L381.8,537.3L382.4,534.8L383.0,532.4L383.5,530.1L383.9,527.7L384.2,525.4L384.3,523.2L384.3,520.9L384.2,518.7L383.9,516.5L383.5,514.2L382.9,512.0L382.2,509.7L381.5,507.4L380.6,505.1L379.6,502.7L378.6,500.3L377.5,497.9L376.4,495.4L375.3,492.8L374.2,490.2L373.2,487.5L372.2,484.8L371.3,482.1L370.5,479.3L369.9,476.6L369.4,473.8L369.0,471.0L368.9,468.2L368.9,465.5L369.1,462.8L369.6,460.2L370.2,457.6L371.1,455.1L372.1,452.6L373.4,450.3L374.9,448.1L376.5,445.9L378.4,443.9L380.3,442.0L382.5,440.2L384.7,438.5L387.1,437.0L389.6,435.5L392.1,434.1L394.7,432.8L397.2,431.7L399.9,430.5L402.4,429.4L405.0,428.4L407.5,427.4L410.0,426.4L412.4,425.4L414.6,424.3L416.9,423.3L419.0,422.1L421.0,421.0L422.9,419.7L424.7,418.3L426.4,416.9L428.0,415.3L429.5,413.6L430.9,411.9L432.3,410.0L433.6,408.0L434.9,405.9L436.2,403.7L437.4,401.4L438.7,399.1L439.9,396.7L441.2,394.2L442.6,391.7L444.0,389.3L445.4,386.8L447.0,384.4L448.6,382.0L450.3,379.7L452.1,377.6L454.1,375.5L456.1,373.6L458.2,371.8L460.4,370.3L462.7,368.9L465.1,367.7L467.6,366.7L470.1,365.9L472.7,365.3L475.3,365.0L478.0,364.9L480.7,365.0L483.5,365.2L486.2,365.7L488.9,366.4L491.6,367.2L494.3,368.1L497.0,369.2L499.6,370.4L502.2,371.6L504.7,372.9L507.2,374.3L509.6,375.6L512.0,377.0L514.3,378.3L516.6,379.6L518.9,380.8L521.1,381.8L523.3,382.8L525.5,383.7L527.7,384.5L529.8,385.1L532.0,385.6L534.2,385.9L536.5,386.1L538.7,386.2L541.1,386.1L543.4,386.0L545.8,385.7L548.3,385.4L550.8,384.9L553.4,384.5L556.1,384.0L558.8,383.4L561.5,382.9L564.3,382.5L567.2,382.1L570.0,381.7L572.9,381.5L575.7,381.3L578.6,381.3L581.4,381.5L584.2,381.8L586.9,382.3L589.5,382.9L592.1,383.8L594.6,384.8L596.9,386.1L599.2,387.5L601.3,389.1L603.3,390.9L605.1,392.8L606.8,394.9L608.3,397.2L609.7,399.6L611.0,402.1L612.1,404.7L613.1,407.3L614.0,410.0L614.7,412.8L615.4,415.6L615.9,418.4L616.5,421.2L616.9,424.0L617.4,426.7L617.8,429.3L618.2,431.9L618.7,434.5L619.2,436.9L619.8,439.3L620.4,441.6L621.1,443.8L622.0,445.9L622.9,448.0L624.0,449.9L625.1,451.8L626.4,453.7L627.9,455.5L629.4,457.2L631.1,459.0L632.9,460.7L634.7,462.4L636.7,464.1L638.7,465.9L640.8,467.7L642.9,469.5L645.0,471.3L647.1,473.3L649.2,475.2L651.2,477.3L653.1,479.4L654.9,481.6L656.6,483.9L658.2,486.2L659.6,488.6L660.8,491.1L661.8,493.6L662.6,496.2L663.2,498.8L663.6,501.4L663.8,504.0L663.7,506.7L663.4,509.4L662.9,512.0Z" fill="#ffba8d" data-om-id="jsx:/https:/b6be7d2d-590a-435a-8187-427029cdfeaf.claudeusercontent.com/v1/design/projects/b6be7d2d-590a-435a-8187-427029cdfeaf/serve/cartoon.jsx:1177:27:9"/><g data-om-id="jsx:/https:/b6be7d2d-590a-435a-8187-427029cdfeaf.claudeusercontent.com/v1/design/projects/b6be7d2d-590a-435a-8187-427029cdfeaf/serve/leaf.jsx:1123:24:5"><path d="M 0 0&#10;    C -93.63200000000002 -95.75999999999999, -114.91200000000002 -292.6, 0 -532&#10;    C 114.91200000000002 -292.6, 93.63200000000002 -95.75999999999999, 0 0 Z" fill="#1f6126" transform="translate(512 680) rotate(0)" data-om-id="jsx:/https:/b6be7d2d-590a-435a-8187-427029cdfeaf.claudeusercontent.com/v1/design/projects/b6be7d2d-590a-435a-8187-427029cdfeaf/serve/leaf.jsx:563:11:10"/><path d="M 0 0&#10;    C -80.52352 -82.3536, -98.82432 -251.63600000000002, 0 -457.52&#10;    C 98.82432 -251.63600000000002, 80.52352 -82.3536, 0 0 Z" fill="#1f6126" transform="translate(512 680) rotate(26)" data-om-id="jsx:/https:/b6be7d2d-590a-435a-8187-427029cdfeaf.claudeusercontent.com/v1/design/projects/b6be7d2d-590a-435a-8187-427029cdfeaf/serve/leaf.jsx:563:11:10"/><path d="M 0 0&#10;    C -80.52352 -82.3536, -98.82432 -251.63600000000002, 0 -457.52&#10;    C 98.82432 -251.63600000000002, 80.52352 -82.3536, 0 0 Z" fill="#1f6126" transform="translate(512 680) rotate(-26)" data-om-id="jsx:/https:/b6be7d2d-590a-435a-8187-427029cdfeaf.claudeusercontent.com/v1/design/projects/b6be7d2d-590a-435a-8187-427029cdfeaf/serve/leaf.jsx:563:11:10"/><path d="M 0 0&#10;    C -61.79712000000001 -63.2016, -75.84192 -193.116, 0 -351.12&#10;    C 75.84192 -193.116, 61.79712000000001 -63.2016, 0 0 Z" fill="#1f6126" transform="translate(512 680) rotate(56)" data-om-id="jsx:/https:/b6be7d2d-590a-435a-8187-427029cdfeaf.claudeusercontent.com/v1/design/projects/b6be7d2d-590a-435a-8187-427029cdfeaf/serve/leaf.jsx:563:11:10"/><path d="M 0 0&#10;    C -61.79712000000001 -63.2016, -75.84192 -193.116, 0 -351.12&#10;    C 75.84192 -193.116, 61.79712000000001 -63.2016, 0 0 Z" fill="#1f6126" transform="translate(512 680) rotate(-56)" data-om-id="jsx:/https:/b6be7d2d-590a-435a-8187-427029cdfeaf.claudeusercontent.com/v1/design/projects/b6be7d2d-590a-435a-8187-427029cdfeaf/serve/leaf.jsx:563:11:10"/><path d="M 0 0&#10;    C -39.32544 -40.2192, -48.263040000000004 -122.89200000000001, 0 -223.44&#10;    C 48.263040000000004 -122.89200000000001, 39.32544 -40.2192, 0 0 Z" fill="#1f6126" transform="translate(512 680) rotate(88)" data-om-id="jsx:/https:/b6be7d2d-590a-435a-8187-427029cdfeaf.claudeusercontent.com/v1/design/projects/b6be7d2d-590a-435a-8187-427029cdfeaf/serve/leaf.jsx:563:11:10"/><path d="M 0 0&#10;    C -39.32544 -40.2192, -48.263040000000004 -122.89200000000001, 0 -223.44&#10;    C 48.263040000000004 -122.89200000000001, 39.32544 -40.2192, 0 0 Z" fill="#1f6126" transform="translate(512 680) rotate(-88)" data-om-id="jsx:/https:/b6be7d2d-590a-435a-8187-427029cdfeaf.claudeusercontent.com/v1/design/projects/b6be7d2d-590a-435a-8187-427029cdfeaf/serve/leaf.jsx:563:11:10"/><rect x="504.4" y="680" width="15.2" height="117.04" fill="#1f6126" rx="3.8" data-om-id="jsx:/https:/b6be7d2d-590a-435a-8187-427029cdfeaf.claudeusercontent.com/v1/design/projects/b6be7d2d-590a-435a-8187-427029cdfeaf/serve/leaf.jsx:1406:38:9"/></g><filter id="gf" x="0" y="0" width="100%" height="100%" data-om-id="jsx:/https:/b6be7d2d-590a-435a-8187-427029cdfeaf.claudeusercontent.com/v1/design/projects/b6be7d2d-590a-435a-8187-427029cdfeaf/serve/icons.jsx:1651:52:5"><feTurbulence type="fractalNoise" baseFrequency="1" numOctaves="2" seed="3" data-om-id="jsx:/https:/b6be7d2d-590a-435a-8187-427029cdfeaf.claudeusercontent.com/v1/design/projects/b6be7d2d-590a-435a-8187-427029cdfeaf/serve/icons.jsx:1713:53:7"/><feColorMatrix values="0 0 0 0 0   0 0 0 0 0   0 0 0 0 0   0 0 0 0.18 0" data-om-id="jsx:/https:/b6be7d2d-590a-435a-8187-427029cdfeaf.claudeusercontent.com/v1/design/projects/b6be7d2d-590a-435a-8187-427029cdfeaf/serve/icons.jsx:1801:54:7"/></filter><rect width="1024" height="1024" filter="url(#gf)" data-om-id="jsx:/https:/b6be7d2d-590a-435a-8187-427029cdfeaf.claudeusercontent.com/v1/design/projects/b6be7d2d-590a-435a-8187-427029cdfeaf/serve/icons.jsx:1903:56:5" style="mix-blend-mode: multiply;"/></svg>