<svg xmlns="http://www.w3.org/2000/svg" viewBox="0 0 390 760" font-family="'Courier New', monospace">

  <!-- App background -->
  <rect width="390" height="760" fill="#0e1a12"/>

  <!-- ─── HEADER ───────────────────────────────────────────────── -->

  <!-- Phase badge -->
  <text x="20" y="64" font-size="9" fill="#b8e88a" letter-spacing="3">PRE-VEG</text>

  <!-- Phase title -->
  <text x="20" y="90" font-family="Georgia, 'Times New Roman', serif" font-size="21" font-weight="800" fill="#e8f5e3">Establish &amp; Root In</text>

  <!-- Subtitle -->
  <text x="20" y="112" font-size="11" fill="#7a9a7a">Day 14 · First Stretch in 37 days</text>

  <!-- Progress track -->
  <rect x="20" y="123" width="350" height="3" rx="1.5" fill="rgba(255,255,255,0.07)"/>
  <!-- 14/147 = 9.5% = 33px -->
  <rect x="20" y="123" width="33" height="3" rx="1.5" fill="#b8e88a"/>
  <!-- Next milestone marker at ~30% -->
  <rect x="125" y="121" width="1" height="7" rx="0.5" fill="rgba(255,255,255,0.2)"/>

  <!-- Divider -->
  <line x1="0" y1="141" x2="390" y2="141" stroke="rgba(255,255,255,0.07)" stroke-width="1"/>

  <!-- ─── MILESTONE STRIP ────────────────────────────────────── -->

  <!-- Start (done) -->
  <rect x="12" y="149" width="52" height="24" rx="12" fill="rgba(74,222,128,0.06)" stroke="rgba(74,222,128,0.14)" stroke-width="1"/>
  <text x="38" y="165" text-anchor="middle" font-size="8.5" fill="#3a5a3a">START ✓</text>

  <!-- Pre-Veg (current → active) -->
  <rect x="70" y="149" width="70" height="24" rx="12" fill="rgba(184,232,138,0.13)" stroke="#b8e88a" stroke-width="1.5"/>
  <text x="105" y="165" text-anchor="middle" font-size="8.5" fill="#b8e88a">PRE-VEG →</text>

  <!-- Veg (upcoming) -->
  <rect x="146" y="149" width="40" height="24" rx="12" fill="rgba(255,255,255,0.03)" stroke="rgba(255,255,255,0.08)" stroke-width="1"/>
  <text x="166" y="165" text-anchor="middle" font-size="8.5" fill="#3a5a3a">VEG</text>

  <!-- Pre-Flower -->
  <rect x="192" y="149" width="82" height="24" rx="12" fill="rgba(255,255,255,0.03)" stroke="rgba(255,255,255,0.07)" stroke-width="1"/>
  <text x="233" y="165" text-anchor="middle" font-size="8.5" fill="#3a5a3a">PRE-FLOWER</text>

  <!-- Flower -->
  <rect x="280" y="149" width="55" height="24" rx="12" fill="rgba(255,255,255,0.03)" stroke="rgba(255,255,255,0.07)" stroke-width="1"/>
  <text x="307" y="165" text-anchor="middle" font-size="8.5" fill="#3a5a3a">FLOWER</text>

  <!-- Divider -->
  <line x1="0" y1="183" x2="390" y2="183" stroke="rgba(255,255,255,0.07)" stroke-width="1"/>

  <!-- ─── MONTH NAV ──────────────────────────────────────────── -->
  <text x="18" y="208" font-size="17" fill="#3a5a3a">‹</text>
  <text x="195" y="209" text-anchor="middle" font-family="Georgia, 'Times New Roman', serif" font-size="16" font-weight="700" fill="#e8f5e3">June 2026</text>
  <text x="372" y="208" text-anchor="end" font-size="17" fill="#5a8a5a">›</text>

  <!-- ─── DAY HEADERS ────────────────────────────────────────── -->
  <text x="38"  y="229" text-anchor="middle" font-size="10" fill="#3a5a3a">S</text>
  <text x="90"  y="229" text-anchor="middle" font-size="10" fill="#3a5a3a">M</text>
  <text x="142" y="229" text-anchor="middle" font-size="10" fill="#3a5a3a">T</text>
  <text x="194" y="229" text-anchor="middle" font-size="10" fill="#3a5a3a">W</text>
  <text x="246" y="229" text-anchor="middle" font-size="10" fill="#3a5a3a">T</text>
  <text x="298" y="229" text-anchor="middle" font-size="10" fill="#3a5a3a">F</text>
  <text x="350" y="229" text-anchor="middle" font-size="10" fill="#3a5a3a">S</text>

  <!-- ─── CALENDAR GRID ──────────────────────────────────────── -->
  <!--
    June 2026 starts on Monday.
    S  M  T  W  T  F  S
          1  2  3  4  5  6   (Sun blank, Mon=1)
    7  8  9 10 11 12 13
    14 15 16 17 18 19 20
    21 22 23 24 25 26 27
    28 29 30

    Cell x: col*52+13  (cols 0-6)
    Cell y: row*70+238 (rows 0-4)
    Cell w: 50, h: 66
    Pre-veg days 1-3: rgba(184,232,138,0.12)  accent #b8e88a
    Veg days 4-30:    rgba(74,222,128,0.08)   accent #4ade80
    Today = June 3:   stroke #b8e88a
  -->

  <!-- WEEK 0 (y=238) ──────────────────────────────────────────── -->

  <!-- blank Sunday -->
  <rect x="13"  y="239" width="50" height="66" rx="7" fill="rgba(255,255,255,0.01)"/>

  <!-- June 1 Mon — pre-veg, past -->
  <rect x="65"  y="239" width="50" height="66" rx="7" fill="rgba(184,232,138,0.10)"/>
  <text x="73"  y="256" font-size="13" font-weight="700" fill="#5a7a5a">1</text>
  <text x="110" y="299" text-anchor="end" font-size="9" fill="#b8e88a">4/5</text>

  <!-- June 2 Tue — pre-veg, past -->
  <rect x="117" y="239" width="50" height="66" rx="7" fill="rgba(184,232,138,0.10)"/>
  <text x="125" y="256" font-size="13" font-weight="700" fill="#5a7a5a">2</text>
  <text x="162" y="299" text-anchor="end" font-size="9" fill="#b8e88a">3/5</text>

  <!-- June 3 Wed — pre-veg, TODAY (highlighted ring) -->
  <rect x="169" y="239" width="50" height="66" rx="7" fill="rgba(184,232,138,0.17)" stroke="#b8e88a" stroke-width="1.5"/>
  <text x="177" y="256" font-size="13" font-weight="800" fill="#b8e88a">3</text>
  <text x="194" y="297" text-anchor="middle" font-size="8" fill="#b8e88a" letter-spacing="1">TODAY</text>

  <!-- June 4 Thu — veg, upcoming -->
  <rect x="221" y="239" width="50" height="66" rx="7" fill="rgba(74,222,128,0.08)"/>
  <text x="229" y="256" font-size="13" font-weight="700" fill="#3a5a3a">4</text>

  <!-- June 5 Fri -->
  <rect x="273" y="239" width="50" height="66" rx="7" fill="rgba(74,222,128,0.08)"/>
  <text x="281" y="256" font-size="13" font-weight="700" fill="#3a5a3a">5</text>

  <!-- June 6 Sat -->
  <rect x="325" y="239" width="50" height="66" rx="7" fill="rgba(74,222,128,0.08)"/>
  <text x="333" y="256" font-size="13" font-weight="700" fill="#3a5a3a">6</text>

  <!-- WEEK 1 (y=309) ──────────────────────────────────────────── -->

  <rect x="13"  y="309" width="50" height="66" rx="7" fill="rgba(74,222,128,0.08)"/>
  <text x="18"  y="326" font-size="13" font-weight="700" fill="#3a5a3a">7</text>

  <rect x="65"  y="309" width="50" height="66" rx="7" fill="rgba(74,222,128,0.08)"/>
  <text x="73"  y="326" font-size="13" font-weight="700" fill="#3a5a3a">8</text>

  <rect x="117" y="309" width="50" height="66" rx="7" fill="rgba(74,222,128,0.08)"/>
  <text x="125" y="326" font-size="13" font-weight="700" fill="#3a5a3a">9</text>

  <rect x="169" y="309" width="50" height="66" rx="7" fill="rgba(74,222,128,0.08)"/>
  <text x="173" y="326" font-size="13" font-weight="700" fill="#3a5a3a">10</text>

  <rect x="221" y="309" width="50" height="66" rx="7" fill="rgba(74,222,128,0.08)"/>
  <text x="225" y="326" font-size="13" font-weight="700" fill="#3a5a3a">11</text>

  <rect x="273" y="309" width="50" height="66" rx="7" fill="rgba(74,222,128,0.08)"/>
  <text x="277" y="326" font-size="13" font-weight="700" fill="#3a5a3a">12</text>

  <rect x="325" y="309" width="50" height="66" rx="7" fill="rgba(74,222,128,0.08)"/>
  <text x="329" y="326" font-size="13" font-weight="700" fill="#3a5a3a">13</text>

  <!-- WEEK 2 (y=379) ──────────────────────────────────────────── -->

  <rect x="13"  y="379" width="50" height="66" rx="7" fill="rgba(74,222,128,0.08)"/>
  <text x="17"  y="396" font-size="13" font-weight="700" fill="#3a5a3a">14</text>

  <rect x="65"  y="379" width="50" height="66" rx="7" fill="rgba(74,222,128,0.08)"/>
  <text x="69"  y="396" font-size="13" font-weight="700" fill="#3a5a3a">15</text>

  <rect x="117" y="379" width="50" height="66" rx="7" fill="rgba(74,222,128,0.08)"/>
  <text x="121" y="396" font-size="13" font-weight="700" fill="#3a5a3a">16</text>

  <rect x="169" y="379" width="50" height="66" rx="7" fill="rgba(74,222,128,0.08)"/>
  <text x="173" y="396" font-size="13" font-weight="700" fill="#3a5a3a">17</text>

  <rect x="221" y="379" width="50" height="66" rx="7" fill="rgba(74,222,128,0.08)"/>
  <text x="225" y="396" font-size="13" font-weight="700" fill="#3a5a3a">18</text>

  <rect x="273" y="379" width="50" height="66" rx="7" fill="rgba(74,222,128,0.08)"/>
  <text x="277" y="396" font-size="13" font-weight="700" fill="#3a5a3a">19</text>

  <rect x="325" y="379" width="50" height="66" rx="7" fill="rgba(74,222,128,0.08)"/>
  <text x="329" y="396" font-size="13" font-weight="700" fill="#3a5a3a">20</text>

  <!-- WEEK 3 (y=449) ──────────────────────────────────────────── -->

  <rect x="13"  y="449" width="50" height="66" rx="7" fill="rgba(74,222,128,0.08)"/>
  <text x="17"  y="466" font-size="13" font-weight="700" fill="#3a5a3a">21</text>

  <rect x="65"  y="449" width="50" height="66" rx="7" fill="rgba(74,222,128,0.08)"/>
  <text x="69"  y="466" font-size="13" font-weight="700" fill="#3a5a3a">22</text>

  <rect x="117" y="449" width="50" height="66" rx="7" fill="rgba(74,222,128,0.08)"/>
  <text x="121" y="466" font-size="13" font-weight="700" fill="#3a5a3a">23</text>

  <rect x="169" y="449" width="50" height="66" rx="7" fill="rgba(74,222,128,0.08)"/>
  <text x="173" y="466" font-size="13" font-weight="700" fill="#3a5a3a">24</text>

  <rect x="221" y="449" width="50" height="66" rx="7" fill="rgba(74,222,128,0.08)"/>
  <text x="225" y="466" font-size="13" font-weight="700" fill="#3a5a3a">25</text>

  <rect x="273" y="449" width="50" height="66" rx="7" fill="rgba(74,222,128,0.08)"/>
  <text x="277" y="466" font-size="13" font-weight="700" fill="#3a5a3a">26</text>

  <rect x="325" y="449" width="50" height="66" rx="7" fill="rgba(74,222,128,0.08)"/>
  <text x="329" y="466" font-size="13" font-weight="700" fill="#3a5a3a">27</text>

  <!-- WEEK 4 (y=519) ──────────────────────────────────────────── -->

  <rect x="13"  y="519" width="50" height="66" rx="7" fill="rgba(74,222,128,0.08)"/>
  <text x="17"  y="536" font-size="13" font-weight="700" fill="#3a5a3a">28</text>

  <rect x="65"  y="519" width="50" height="66" rx="7" fill="rgba(74,222,128,0.08)"/>
  <text x="69"  y="536" font-size="13" font-weight="700" fill="#3a5a3a">29</text>

  <rect x="117" y="519" width="50" height="66" rx="7" fill="rgba(74,222,128,0.08)"/>
  <text x="121" y="536" font-size="13" font-weight="700" fill="#3a5a3a">30</text>

  <!-- blank cells (Jul 1-4) -->
  <rect x="169" y="519" width="50" height="66" rx="7" fill="rgba(255,255,255,0.01)"/>
  <rect x="221" y="519" width="50" height="66" rx="7" fill="rgba(255,255,255,0.01)"/>
  <rect x="273" y="519" width="50" height="66" rx="7" fill="rgba(255,255,255,0.01)"/>
  <rect x="325" y="519" width="50" height="66" rx="7" fill="rgba(255,255,255,0.01)"/>

  <!-- ─── TAB BAR ────────────────────────────────────────────── -->
  <rect x="0" y="695" width="390" height="65" fill="#141f16"/>
  <line x1="0" y1="695" x2="390" y2="695" stroke="rgba(255,255,255,0.07)" stroke-width="1"/>

  <!-- Calendar tab (active) -->
  <rect x="31" y="703" width="6" height="5" rx="1" fill="#4ade80" opacity="0.6"/>
  <rect x="39" y="703" width="6" height="5" rx="1" fill="#4ade80" opacity="0.6"/>
  <rect x="31" y="710" width="6" height="5" rx="1" fill="#4ade80" opacity="0.9"/>
  <rect x="39" y="710" width="6" height="5" rx="1" fill="#4ade80" opacity="0.9"/>
  <text x="39" y="727" text-anchor="middle" font-size="8" fill="#4ade80" letter-spacing="0.5">CALENDAR</text>

  <!-- Today tab -->
  <circle cx="117" cy="710" r="7" fill="none" stroke="#3a5a3a" stroke-width="1.2"/>
  <text x="117" y="714" text-anchor="middle" font-size="7" fill="#3a5a3a">3</text>
  <text x="117" y="727" text-anchor="middle" font-size="8" fill="#3a5a3a" letter-spacing="0.5">TODAY</text>

  <!-- MJ tab -->
  <rect x="185" y="703" width="20" height="15" rx="4" fill="none" stroke="#3a5a3a" stroke-width="1.2"/>
  <circle cx="190" cy="722" r="1.5" fill="#3a5a3a"/>
  <text x="195" y="727" text-anchor="middle" font-size="8" fill="#3a5a3a" letter-spacing="0.5">MJ</text>

  <!-- Plan tab -->
  <rect x="264" y="703" width="22" height="15" rx="2" fill="none" stroke="#3a5a3a" stroke-width="1.2"/>
  <line x1="268" y1="708" x2="282" y2="708" stroke="#3a5a3a" stroke-width="1"/>
  <line x1="268" y1="712" x2="282" y2="712" stroke="#3a5a3a" stroke-width="1"/>
  <text x="275" y="727" text-anchor="middle" font-size="8" fill="#3a5a3a" letter-spacing="0.5">PLAN</text>

  <!-- More tab -->
  <circle cx="343" cy="710" r="1.5" fill="#3a5a3a"/>
  <circle cx="350" cy="710" r="1.5" fill="#3a5a3a"/>
  <circle cx="357" cy="710" r="1.5" fill="#3a5a3a"/>
  <text x="350" y="727" text-anchor="middle" font-size="8" fill="#3a5a3a" letter-spacing="0.5">MORE</text>

</svg>
